# xmcd CD database file
#
# Track frame offsets:
#	150
#	16666
#	28225
#	41631
#	54534
#	68381
#	84658
#	99091
#	110936
#	128733
#	142463
#	161526
#	176292
#	193638
#	206167
#	219503
#	233305
#	248490
#	267594
#	282601
#
# Disc length: 4004 seconds
#
# Revision: 0
# Processed by: cddbd v1.5.2PL0 Copyright (c) Steve Scherf et al.
# Submitted via: CDex 1.51
#
DISCID=1e0fa214
DTITLE=Ray Charles - The best of
DYEAR=2005
DGENRE=Blues
TTITLE0=georgia on my mind
TTITLE1=i dont need no doctor
TTITLE2=cryin time
TTITLE3=my heart cries for you
TTITLE4=chattanooga choo choo
TTITLE5=your cheatin heart
TTITLE6=hide nor hair
TTITLE7=dont set me free
TTITLE8=careless love
TTITLE9=you are my sunshine
TTITLE10=over the rainbow
TTITLE11=born to lose
TTITLE12=if you were mine
TTITLE13=unchain my heart
TTITLE14=lets go get stoned
TTITLE15=moonlight in vermon
TTITLE16=smack dab in the middle
TTITLE17=i cant stop loving you
TTITLE18=here we go again
TTITLE19=youll never walk alone
EXTD=YEAR: 2005
EXTT0=
EXTT1=
EXTT2=
EXTT3=
EXTT4=
EXTT5=
EXTT6=
EXTT7=
EXTT8=
EXTT9=
EXTT10=
EXTT11=
EXTT12=
EXTT13=
EXTT14=
EXTT15=
EXTT16=
EXTT17=
EXTT18=
EXTT19=
PLAYORDER=
